<svg width="48" height="48" viewBox="0 0 48 48" fill="none" xmlns="http://www.w3.org/2000/svg">
  <g clip-path="url(#clip0_1_33)">
    <path
      d="M36.75 0H11.25C5.0368 0 0 5.0368 0 11.25V36.75C0 42.9632 5.0368 48 11.25 48H36.75C42.9632 48 48 42.9632 48 36.75V11.25C48 5.0368 42.9632 0 36.75 0Z"
      fill="url(#paint0_linear_1_33)" />
    <g filter="url(#filter0_d_1_33)">
      <path
        d="M24.7444 36.7794C30.3086 36.7794 33.6617 34.0549 33.6617 29.5613C33.6617 26.1643 31.2694 23.7052 27.7168 23.3158V23.1744C30.3268 22.7498 32.3749 20.3259 32.3749 17.6192C32.3749 13.7624 29.3301 11.25 24.69 11.25H14.25V36.7794H24.7444ZM18.31 14.4876H23.7112C26.6475 14.4876 28.3149 15.7968 28.3149 18.1675C28.3149 20.6976 26.3756 22.1128 22.8594 22.1128H18.31V14.4876ZM18.31 33.5419V25.1383H23.6749C27.5175 25.1383 29.5112 26.5536 29.5112 29.3136C29.5112 32.0734 27.5719 33.5419 23.9106 33.5419H18.31Z"
        fill="url(#paint1_linear_1_33)" />
      <path
        d="M24.7444 36.7794C30.3086 36.7794 33.6617 34.0549 33.6617 29.5613C33.6617 26.1643 31.2694 23.7052 27.7168 23.3158V23.1744C30.3268 22.7498 32.3749 20.3259 32.3749 17.6192C32.3749 13.7624 29.3301 11.25 24.69 11.25H14.25V36.7794H24.7444ZM18.31 14.4876H23.7112C26.6475 14.4876 28.3149 15.7968 28.3149 18.1675C28.3149 20.6976 26.3756 22.1128 22.8594 22.1128H18.31V14.4876ZM18.31 33.5419V25.1383H23.6749C27.5175 25.1383 29.5112 26.5536 29.5112 29.3136C29.5112 32.0734 27.5719 33.5419 23.9106 33.5419H18.31Z"
        stroke="white" stroke-width="2" />
    </g>
  </g>
  <defs>
    <filter id="filter0_d_1_33" x="-2.75" y="-1.75" width="53.4117" height="59.5295"
      filterUnits="userSpaceOnUse" color-interpolation-filters="sRGB">
      <feFlood flood-opacity="0" result="BackgroundImageFix" />
      <feColorMatrix in="SourceAlpha" type="matrix"
        values="0 0 0 0 0 0 0 0 0 0 0 0 0 0 0 0 0 0 127 0" result="hardAlpha" />
      <feOffset dy="4" />
      <feGaussianBlur stdDeviation="8" />
      <feColorMatrix type="matrix" values="0 0 0 0 0 0 0 0 0 0 0 0 0 0 0 0 0 0 0.15 0" />
      <feBlend mode="normal" in2="BackgroundImageFix" result="effect1_dropShadow_1_33" />
      <feBlend mode="normal" in="SourceGraphic" in2="effect1_dropShadow_1_33" result="shape" />
    </filter>
    <linearGradient id="paint0_linear_1_33" x1="0" y1="0" x2="48" y2="48"
      gradientUnits="userSpaceOnUse">
      <stop stop-color="#9013FE" />
      <stop offset="1" stop-color="#6B11F4" />
    </linearGradient>
    <linearGradient id="paint1_linear_1_33" x1="16.0862" y1="12.9304" x2="27.8514" y2="32.8283"
      gradientUnits="userSpaceOnUse">
      <stop stop-color="white" />
      <stop offset="1" stop-color="#F1E5FC" />
    </linearGradient>
    <clipPath id="clip0_1_33">
      <rect width="48" height="48" fill="white" />
    </clipPath>
  </defs>
</svg>
