<svg width="48" height="48" viewBox="0 0 48 48" fill="none" xmlns="http://www.w3.org/2000/svg">
  <g clip-path="url(#clip0_134_18)">
    <path
      d="M36.75 0H11.25C5.0368 0 0 5.0368 0 11.25V36.75C0 42.9632 5.0368 48 11.25 48H36.75C42.9632 48 48 42.9632 48 36.75V11.25C48 5.0368 42.9632 0 36.75 0Z"
      fill="#953CAD" />
    <path
      d="M36.6442 18.8752V21.4016H39.1706V18.8752H40.4338V21.4016H42.96V22.6648H40.4338V25.191H42.96V26.4542H40.4338V28.9806H39.1706V26.4542H36.6442V28.9806H35.3811V26.4542H32.8549V25.191H35.3811V22.6648H32.8549V21.4016H35.3811V18.8752H36.6442ZM39.1706 22.6648H36.6442V25.191H39.1706V22.6648Z"
      fill="white" />
    <path
      d="M22.8752 6.1875C29.4645 6.1875 35.2177 9.76618 38.2991 15.0855L38.2691 15.0343L30.5162 19.4983C28.9888 16.9121 26.1885 15.1667 22.9762 15.1308L22.8752 15.1302C17.9766 15.1302 14.0052 19.1014 14.0052 23.9998C14.0052 25.6018 14.4323 27.1035 15.175 28.4004C16.7039 31.0695 19.578 32.8699 22.8752 32.8699C26.1924 32.8699 29.0829 31.0466 30.6041 28.3491L30.5672 28.4137L38.3083 32.8984C35.2607 38.1727 29.5864 41.7403 23.0736 41.8114L22.8752 41.8125C16.2649 41.8125 10.4954 38.2118 7.42162 32.8643C5.92108 30.2537 5.0625 27.2272 5.0625 23.9998C5.0625 14.1625 13.0373 6.1875 22.8752 6.1875Z"
      fill="white" />
  </g>
  <defs>
    <clipPath id="clip0_134_18">
      <rect width="48" height="48" fill="white" />
    </clipPath>
  </defs>
</svg>
