<svg width="48" height="48" viewBox="0 0 48 48" fill="none" xmlns="http://www.w3.org/2000/svg">
  <g clip-path="url(#clip0_134_9)">
    <path
      d="M36.75 0H11.25C5.0368 0 0 5.0368 0 11.25V36.75C0 42.9632 5.0368 48 11.25 48H36.75C42.9632 48 48 42.9632 48 36.75V11.25C48 5.0368 42.9632 0 36.75 0Z"
      fill="#512BD4" />
    <path
      d="M4.50979 31.6768C4.09041 31.6768 3.73393 31.5398 3.44036 31.2654C3.14679 30.984 3 30.6499 3 30.2629C3 29.8689 3.14679 29.5313 3.44036 29.2498C3.73393 28.9686 4.09041 28.8278 4.50979 28.8278C4.93616 28.8278 5.29612 28.9686 5.58971 29.2498C5.89026 29.5313 6.04054 29.8689 6.04054 30.2629C6.04054 30.6499 5.89026 30.984 5.58971 31.2654C5.29612 31.5398 4.93616 31.6768 4.50979 31.6768Z"
      fill="white" />
    <path
      d="M21.2751 31.4447H18.5491L11.3672 20.3226C11.1855 20.0411 11.0351 19.749 10.9163 19.4466H10.8534C10.9093 19.7702 10.9373 20.4632 10.9373 21.5254V31.4447H8.52576V16.3125H11.43L18.3709 27.171C18.6645 27.6214 18.8531 27.9308 18.9371 28.0997H18.9789C18.9092 27.6986 18.8741 27.0199 18.8741 26.0629V16.3125H21.2751V31.4447Z"
      fill="white" />
    <path
      d="M33.0184 31.4447H24.5782V16.3125H32.6829V18.4441H27.0737V22.7284H32.2427V24.8494H27.0737V29.3237H33.0184V31.4447Z"
      fill="white" />
    <path d="M45.0133 18.4441H40.6937V31.4447H38.1983V18.4441H33.8891V16.3125H45.0133V18.4441Z"
      fill="white" />
  </g>
  <defs>
    <clipPath id="clip0_134_9">
      <rect width="48" height="48" fill="white" />
    </clipPath>
  </defs>
</svg>
