<svg width="48" height="48" viewBox="0 0 48 48" fill="none" xmlns="http://www.w3.org/2000/svg">
  <g clip-path="url(#clip0_1_47)">
    <path
      d="M36.75 0H11.25C5.0368 0 0 5.0368 0 11.25V36.75C0 42.9632 5.0368 48 11.25 48H36.75C42.9632 48 48 42.9632 48 36.75V11.25C48 5.0368 42.9632 0 36.75 0Z"
      fill="#242938" />
    <path
      d="M42.75 34.3006C42.2042 34.5074 41.6016 34.5069 41.0559 34.2995C40.5105 34.0919 40.0598 33.6918 39.7892 33.1747C38.0899 30.6309 36.2134 28.2018 34.4098 25.7206L33.6278 24.6781C31.4801 27.5555 29.3325 30.3181 27.3726 33.1852C27.1172 33.6794 26.691 34.064 26.1731 34.2672C25.6553 34.4707 25.0811 34.4787 24.5578 34.2903L32.6166 23.4792L25.1207 13.7106C25.6603 13.5158 26.2506 13.5131 26.7919 13.703C27.3332 13.893 27.7924 14.2639 28.092 14.7531C29.8329 17.2969 31.7618 19.7261 33.6799 22.3012C35.6087 19.7469 37.5165 17.3073 39.2993 14.7844C39.5559 14.2982 39.9825 13.9233 40.4978 13.7311C41.0128 13.5389 41.5808 13.5427 42.0932 13.7419L39.1845 17.5993C37.8814 19.3194 36.5991 21.05 35.2438 22.7285C35.1345 22.8264 35.0471 22.946 34.9873 23.0799C34.9275 23.2137 34.8966 23.3587 34.8966 23.5053C34.8966 23.6517 34.9275 23.7967 34.9873 23.9306C35.0471 24.0644 35.1345 24.1841 35.2438 24.2819C37.7355 27.5868 40.2062 30.902 42.75 34.3006Z"
      fill="white" />
    <path
      d="M5.25 23.3438C5.46893 22.3013 5.60447 21.1648 5.90679 20.1015C7.71038 13.6899 15.0603 11.021 20.1165 14.9931C23.0773 17.318 23.8176 20.6124 23.6717 24.3238H6.99103C6.71998 30.9544 11.5052 34.9577 17.6249 32.9143C18.6176 32.5592 19.5062 31.9626 20.2106 31.1781C20.9151 30.3936 21.4129 29.4459 21.6594 28.4209C21.9827 27.3784 22.5039 27.2012 23.4943 27.5034C23.3312 28.7726 22.8825 29.9884 22.1818 31.0592C21.4813 32.13 20.547 33.0279 19.4494 33.6857C17.6357 34.6776 15.555 35.0704 13.5046 34.8083C11.4543 34.5461 9.53931 33.6424 8.03357 32.2262C6.54396 30.5513 5.64324 28.4351 5.46893 26.2003C5.46893 25.8459 5.3334 25.4914 5.26042 25.1578C5.25347 24.5393 5.25 23.9346 5.25 23.3438ZM7.01188 22.8954H22.0974C22.0035 18.0894 18.9698 14.6803 14.9247 14.6491C10.421 14.5865 7.19955 17.9226 7.00146 22.8746L7.01188 22.8954Z"
      fill="white" />
  </g>
  <defs>
    <clipPath id="clip0_1_47">
      <rect width="48" height="48" fill="white" />
    </clipPath>
  </defs>
</svg>
