<svg width="48" height="48" viewBox="0 0 48 48" fill="none" xmlns="http://www.w3.org/2000/svg">
  <g clip-path="url(#clip0_1_59)">
    <path
      d="M36.75 0H11.25C5.0368 0 0 5.0368 0 11.25V36.75C0 42.9632 5.0368 48 11.25 48H36.75C42.9632 48 48 42.9632 48 36.75V11.25C48 5.0368 42.9632 0 36.75 0Z"
      fill="#F03C2E" />
    <path
      d="M42.0422 22.3302L25.6699 5.95786C25.4458 5.73355 25.1796 5.55564 24.8867 5.43425C24.5936 5.31284 24.2796 5.25037 23.9625 5.25037C23.6454 5.25037 23.3314 5.31284 23.0383 5.43425C22.7454 5.55564 22.4792 5.73355 22.2551 5.95786L18.8567 9.3563L23.1692 13.6688C24.1723 13.3172 25.3207 13.5575 26.1199 14.3567C26.5003 14.7378 26.766 15.2183 26.8864 15.7431C27.0068 16.268 26.9771 16.8162 26.8007 17.325L30.9574 21.4817C31.9629 21.1349 33.123 21.3585 33.9257 22.1637C34.1927 22.4307 34.4044 22.7475 34.5487 23.0963C34.6931 23.445 34.7674 23.8187 34.7674 24.1962C34.7672 24.5736 34.6929 24.9473 34.5484 25.296C34.4038 25.6446 34.1921 25.9615 33.9251 26.2283C33.6583 26.4953 33.3414 26.7068 32.9927 26.8512C32.6439 26.9957 32.2703 27.07 31.8928 27.0698C31.5154 27.0698 31.1415 26.9954 30.7929 26.851C30.4442 26.7064 30.1273 26.4947 29.8605 26.2277C29.0167 25.384 28.8083 24.1418 29.2348 23.1023L25.3583 19.2257V29.427C25.6397 29.5662 25.8967 29.7499 26.1199 29.9708C26.3867 30.2376 26.5984 30.5543 26.7429 30.903C26.8873 31.2516 26.9616 31.6253 26.9616 32.0027C26.9616 32.3802 26.8873 32.7539 26.7429 33.1024C26.5984 33.4512 26.3867 33.768 26.1199 34.0349C25.8531 34.3017 25.5362 34.5134 25.1876 34.6577C24.8389 34.8021 24.4652 34.8765 24.0879 34.8765C23.7105 34.8765 23.3368 34.8021 22.9882 34.6577C22.6395 34.5134 22.3226 34.3017 22.0558 34.0349C21.7886 33.768 21.5767 33.4514 21.4322 33.1028C21.2874 32.754 21.213 32.3802 21.213 32.0027C21.213 31.6253 21.2874 31.2516 21.4322 30.9029C21.5767 30.5541 21.7886 30.2374 22.0558 29.9708C22.3335 29.6942 22.6418 29.4844 22.9969 29.3438V19.0476C22.6547 18.907 22.3335 18.6996 22.0558 18.4207C21.6523 18.0177 21.378 17.5037 21.2677 16.9441C21.1577 16.3846 21.2166 15.8049 21.4371 15.279L17.1832 11.0274L5.95663 22.2422C5.73218 22.4665 5.55411 22.7327 5.43261 23.0258C5.31111 23.3189 5.24858 23.6329 5.24858 23.9502C5.24858 24.2674 5.31111 24.5817 5.43261 24.8747C5.55411 25.1678 5.73218 25.434 5.95663 25.6583L22.3301 42.0293C22.5542 42.2536 22.8204 42.4315 23.1133 42.553C23.4064 42.6743 23.7204 42.7367 24.0375 42.7367C24.3546 42.7367 24.6686 42.6743 24.9617 42.553C25.2546 42.4315 25.5208 42.2536 25.7449 42.0293L42.0422 25.7579C42.2666 25.5336 42.4447 25.2674 42.5663 24.9743C42.6877 24.6812 42.7502 24.3672 42.7502 24.0499C42.7502 23.7327 42.6877 23.4184 42.5663 23.1254C42.4447 22.8323 42.2666 22.566 42.0422 22.3418"
      fill="white" />
  </g>
  <defs>
    <clipPath id="clip0_1_59">
      <rect width="48" height="48" fill="white" />
    </clipPath>
  </defs>
</svg>
