<svg width="48" height="48" viewBox="0 0 48 48" fill="none" xmlns="http://www.w3.org/2000/svg">
  <g clip-path="url(#clip0_1_71)">
    <path
      d="M36.75 0H11.25C5.0368 0 0 5.0368 0 11.25V36.75C0 42.9632 5.0368 48 11.25 48H36.75C42.9632 48 48 42.9632 48 36.75V11.25C48 5.0368 42.9632 0 36.75 0Z"
      fill="#F0DB4F" />
    <path
      d="M12.6209 40.1122L16.2943 37.8892C17.0029 39.1456 17.6475 40.2087 19.1938 40.2087C20.676 40.2087 21.6105 39.629 21.6105 37.3737V22.0366H26.1214V37.4375C26.1214 42.1094 23.3827 44.2361 19.3871 44.2361C15.7787 44.2361 13.6841 42.3672 12.6209 40.1118"
      fill="#323330" />
    <path
      d="M28.5714 39.629L32.2442 37.5026C33.2111 39.0815 34.4678 40.2414 36.6908 40.2414C38.5599 40.2414 39.7517 39.3069 39.7517 38.018C39.7517 36.4715 38.5273 35.9236 36.4652 35.0217L35.3378 34.5382C32.0833 33.1529 29.9244 31.4129 29.9244 27.7398C29.9244 24.3566 32.5022 21.7788 36.5299 21.7788C39.3975 21.7788 41.4596 22.7778 42.9416 25.3876L39.4296 27.6431C38.6561 26.2576 37.8188 25.7099 36.5299 25.7099C35.2088 25.7099 34.371 26.5477 34.371 27.6431C34.371 28.9962 35.2088 29.5441 37.1419 30.3821L38.2695 30.8652C42.1037 32.5087 44.2626 34.1838 44.2626 37.9535C44.2626 42.0136 41.0728 44.2366 36.7875 44.2366C32.5989 44.2366 29.8924 42.239 28.5714 39.629Z"
      fill="#323330" />
  </g>
  <defs>
    <clipPath id="clip0_1_71">
      <rect width="48" height="48" fill="#fff" />
    </clipPath>
  </defs>
</svg>
