<svg width="48" height="48" viewBox="0 0 48 48" fill="none" xmlns="http://www.w3.org/2000/svg">
  <g clip-path="url(#clip0_1_100)">
    <path
      d="M36.75 0H11.25C5.0368 0 0 5.0368 0 11.25V36.75C0 42.9632 5.0368 48 11.25 48H36.75C42.9632 48 48 42.9632 48 36.75V11.25C48 5.0368 42.9632 0 36.75 0Z"
      fill="#242938" />
    <path fill-rule="evenodd" clip-rule="evenodd"
      d="M36.0058 29.5633C36.1543 29.478 36.2779 29.3552 36.3639 29.2071C36.45 29.0589 36.4956 28.8908 36.4961 28.7196L36.5138 23.0681C36.5141 22.8969 36.5599 22.7288 36.6459 22.5806C36.7318 22.4325 36.8554 22.3097 37.0039 22.2244L40.0674 20.4647C40.2159 20.3794 40.3841 20.3348 40.5553 20.3349C40.7265 20.3353 40.8947 20.3805 41.0428 20.4664C41.1911 20.5521 41.3141 20.6753 41.3996 20.8236C41.4851 20.9719 41.5303 21.1401 41.5303 21.3114V31.5857C41.5303 31.7576 41.4849 31.9262 41.3989 32.0749C41.3128 32.2236 41.1891 32.3469 41.04 32.4324L29.4786 39.0731C29.3308 39.1579 29.1636 39.2025 28.9933 39.2027C28.8231 39.2029 28.6556 39.1584 28.5079 39.0741L19.4346 33.8846C19.2851 33.7991 19.1608 33.6759 19.0744 33.5271C18.9879 33.3782 18.9424 33.2091 18.9424 33.0369V27.8563C18.9424 27.8505 18.9493 27.8466 18.9551 27.8494C18.96 27.8524 18.9668 27.8494 18.9668 27.8426V27.8368C18.9668 27.8329 18.9688 27.8289 18.9728 27.8271L26.4454 23.5341C26.4521 23.5301 26.4491 23.5194 26.4414 23.5194C26.4394 23.5194 26.4373 23.5185 26.4358 23.517C26.4345 23.5157 26.4336 23.5136 26.4336 23.5116L26.4482 18.4325C26.4489 18.2607 26.4043 18.0918 26.3188 17.9428C26.2335 17.7938 26.1101 17.67 25.9616 17.5838C25.8131 17.4976 25.6444 17.4522 25.4726 17.452C25.3009 17.4518 25.1321 17.497 24.9834 17.5828L19.4297 20.7831C19.2814 20.8684 19.1134 20.9134 18.9424 20.9134C18.7714 20.9134 18.6033 20.8684 18.4551 20.7831L12.8838 17.575C12.7354 17.4896 12.5671 17.4446 12.3958 17.4448C12.2245 17.4449 12.0563 17.49 11.908 17.5757C11.7597 17.6614 11.6365 17.7846 11.5508 17.9329C11.4652 18.0812 11.42 18.2495 11.4199 18.4207V27.6004C11.42 27.7716 11.3752 27.9396 11.2899 28.0879C11.2046 28.2362 11.0818 28.3596 10.9339 28.4454C10.7859 28.5315 10.618 28.5771 10.4469 28.5776C10.2758 28.5782 10.1075 28.5339 9.95899 28.449L6.86719 26.6814C6.71743 26.5959 6.59301 26.4722 6.50655 26.3229C6.42009 26.1739 6.37472 26.0044 6.375 25.8319L6.40234 9.78694C6.40271 9.61588 6.44801 9.44794 6.5337 9.29989C6.61937 9.15184 6.74244 9.0289 6.89057 8.94338C7.03869 8.85784 7.2067 8.81271 7.37775 8.8125C7.54881 8.8123 7.7169 8.85703 7.86523 8.94221L18.4561 15.0252C18.6041 15.1102 18.7718 15.1549 18.9424 15.1549C19.113 15.1549 19.2808 15.1102 19.4288 15.0252L30.0167 8.94221C30.1652 8.8569 30.3336 8.81216 30.5047 8.8125C30.6761 8.81284 30.8443 8.85821 30.9926 8.94411C31.1408 9.02998 31.2638 9.15334 31.3493 9.3018C31.4347 9.45025 31.4796 9.61856 31.4796 9.78986V25.8386C31.4796 26.0104 31.4344 26.1791 31.3485 26.3276C31.2626 26.4763 31.1391 26.5997 30.9902 26.6854L25.4452 29.8787C25.2964 29.9646 25.1728 30.0883 25.0869 30.2372C25.0011 30.3861 24.9561 30.5552 24.9564 30.7271C24.9568 30.8989 25.0026 31.0676 25.0892 31.2163C25.1756 31.3648 25.2999 31.4878 25.4492 31.5731L28.5079 33.3143C28.6556 33.3984 28.8229 33.4425 28.9929 33.4421C29.163 33.4418 29.3301 33.3971 29.4776 33.3124L36.0058 29.5633ZM36.6474 15.1668C36.6476 15.3395 36.6936 15.5091 36.7806 15.6583C36.8676 15.8074 36.9926 15.9308 37.143 16.0159C37.2932 16.101 37.4634 16.1447 37.6361 16.1425C37.8088 16.1404 37.9778 16.0925 38.1261 16.0037L41.0558 14.2459C41.2003 14.1593 41.3199 14.0366 41.4032 13.89C41.4864 13.7433 41.5301 13.5776 41.5303 13.409V9.82697C41.5299 9.65436 41.4838 9.48491 41.3968 9.33589C41.3096 9.18686 41.1846 9.06358 41.0344 8.97863C40.884 8.89367 40.7139 8.85006 40.5414 8.85223C40.3687 8.85443 40.1998 8.90231 40.0517 8.99104L37.122 10.7489C36.9774 10.8355 36.8576 10.9581 36.7746 11.1048C36.6913 11.2515 36.6476 11.4172 36.6474 11.5858V15.1678V15.1668Z"
      fill="#007FFF" />
  </g>
  <defs>
    <clipPath id="clip0_1_100">
      <rect width="48" height="48" fill="white" />
    </clipPath>
  </defs>
</svg>
