<svg width="48" height="48" viewBox="0 0 48 48" fill="none" xmlns="http://www.w3.org/2000/svg">
  <g clip-path="url(#clip0_2_15)">
    <path
      d="M36.75 0H11.25C5.0368 0 0 5.0368 0 11.25V36.75C0 42.9632 5.0368 48 11.25 48H36.75C42.9632 48 48 42.9632 48 36.75V11.25C48 5.0368 42.9632 0 36.75 0Z"
      fill="#242938" />
    <path
      d="M24.0002 27.5534C25.9322 27.5534 27.4982 25.9872 27.4982 24.0554C27.4982 22.1236 25.9322 20.5574 24.0002 20.5574C22.0684 20.5574 20.5022 22.1236 20.5022 24.0554C20.5022 25.9872 22.0684 27.5534 24.0002 27.5534Z"
      fill="#00D8FF" />
    <path fill-rule="evenodd" clip-rule="evenodd"
      d="M24.0004 16.9431C28.6969 16.9431 33.0598 17.617 36.3495 18.7495C40.3131 20.1141 42.75 22.1824 42.75 24.0553C42.75 26.007 40.1674 28.2043 35.9109 29.6145C32.6931 30.6806 28.4586 31.2371 24.0004 31.2371C19.4295 31.2371 15.101 30.7147 11.8469 29.6027C7.72978 28.1955 5.25 25.9699 5.25 24.0553C5.25 22.1976 7.5768 20.1452 11.4847 18.7828C14.7866 17.6316 19.2572 16.9431 23.9996 16.9431H24.0004Z"
      stroke="#00D8FF" stroke-width="2" />
    <path fill-rule="evenodd" clip-rule="evenodd"
      d="M17.809 20.5196C20.1553 16.4513 22.9185 13.0084 25.5431 10.7245C28.7051 7.97261 31.7145 6.8949 33.3368 7.83043C35.0274 8.80543 35.6408 12.1406 34.7361 16.5321C34.0526 19.8523 32.4188 23.7984 30.1914 27.6606C27.9079 31.6202 25.2932 35.1088 22.7044 37.3716C19.4286 40.2351 16.2616 41.2714 14.6031 40.3149C12.9938 39.3876 12.3784 36.3461 13.1504 32.2802C13.8027 28.8446 15.4397 24.6279 17.8082 20.5196H17.809Z"
      stroke="#00D8FF" stroke-width="2" />
    <path fill-rule="evenodd" clip-rule="evenodd"
      d="M17.8148 27.6708C15.4619 23.6069 13.8599 19.4928 13.1912 16.0783C12.3863 11.9644 12.9554 8.81904 14.5763 7.88079C16.2653 6.90294 19.461 8.03726 22.8139 11.0143C25.3489 13.2651 27.9519 16.6509 30.1856 20.5092C32.4757 24.4651 34.1921 28.4729 34.8598 31.8456C35.7047 36.1139 35.0209 39.3751 33.3639 40.3341C31.7563 41.2649 28.8143 40.2796 25.6772 37.5799C23.0267 35.2992 20.1909 31.7751 17.8148 27.6708Z"
      stroke="#00D8FF" stroke-width="2" />
  </g>
  <defs>
    <clipPath id="clip0_2_15">
      <rect width="48" height="48" fill="white" />
    </clipPath>
  </defs>
</svg>
