<svg width="48" height="48" viewBox="0 0 48 48" fill="none" xmlns="http://www.w3.org/2000/svg">
  <g clip-path="url(#clip0_2_21)">
    <path
      d="M36.75 0H11.25C5.0368 0 0 5.0368 0 11.25V36.75C0 42.9632 5.0368 48 11.25 48H36.75C42.9632 48 48 42.9632 48 36.75V11.25C48 5.0368 42.9632 0 36.75 0Z"
      fill="#764ABC" />
    <path
      d="M31.2336 31.0498C32.6175 30.9066 33.6673 29.7135 33.6195 28.282C33.5719 26.8504 32.3788 25.7051 30.9472 25.7051H30.8518C29.3724 25.7528 28.2272 26.9935 28.2748 28.4728C28.3226 29.1887 28.6089 29.809 29.0383 30.2385C27.4159 33.4358 24.9345 35.7741 21.2122 37.7306C18.6831 39.0668 16.0585 39.544 13.4338 39.21C11.2864 38.9237 9.61624 37.9691 8.56639 36.3945C7.03933 34.0562 6.89617 31.527 8.18462 28.9978C9.09131 27.1843 10.5229 25.8482 11.4296 25.1801C11.2387 24.5599 10.9524 23.5099 10.8092 22.7464C3.8898 27.7571 4.6056 34.5334 6.70528 37.7306C8.28005 40.1166 11.4773 41.596 15.0086 41.596C15.963 41.596 16.9174 41.5005 17.8718 41.2618C23.9801 40.069 28.6089 36.4421 31.2336 31.0498Z"
      fill="white" />
    <path
      d="M39.6323 25.1325C36.0056 20.8853 30.6609 18.547 24.5528 18.547H23.7893C23.3597 17.6881 22.4529 17.1154 21.4509 17.1154H21.3555C19.8761 17.1631 18.7308 18.4039 18.7785 19.8833C18.8263 21.3148 20.0192 22.4601 21.4509 22.4601H21.5464C22.5962 22.4124 23.5029 21.7444 23.8847 20.8376H24.7436C28.3703 20.8376 31.8062 21.8874 34.908 23.9394C37.2939 25.5143 39.012 27.5663 39.9664 30.0476C40.7777 32.0518 40.7299 34.0084 39.8709 35.6786C38.5348 38.2078 36.2919 39.5918 33.3332 39.5918C31.4244 39.5918 29.6111 39.0191 28.6566 38.5896C28.1318 39.0668 27.1774 39.8303 26.5093 40.3074C28.5611 41.2618 30.6609 41.7868 32.6651 41.7868C37.2463 41.7868 40.6344 39.2576 41.9229 36.7284C43.3069 33.9608 43.2114 29.1887 39.6323 25.1325Z"
      fill="white" />
    <path
      d="M15.3904 31.8611C15.4381 33.2927 16.6311 34.4379 18.0628 34.4379H18.1582C19.6374 34.3901 20.7829 33.1494 20.7351 31.6701C20.6874 30.2385 19.4944 29.0933 18.0628 29.0933H17.9673C17.8719 29.0933 17.7287 29.0933 17.6333 29.1411C15.6767 25.896 14.8655 22.3646 15.1518 18.5471C15.3427 15.6839 16.2971 13.2024 17.9673 11.1504C19.3511 9.38477 22.0236 8.52579 23.8369 8.47808C28.8952 8.38264 31.0427 14.6817 31.1857 17.2109C31.8062 17.3541 32.856 17.6881 33.5719 17.9267C32.9992 10.196 28.2272 6.1875 23.646 6.1875C19.3511 6.1875 15.3904 9.28931 13.8156 13.8705C11.6205 19.9787 13.0521 25.8482 15.7244 30.4772C15.4859 30.8111 15.3427 31.3361 15.3904 31.8611Z"
      fill="white" />
  </g>
  <defs>
    <clipPath id="clip0_2_21">
      <rect width="48" height="48" fill="white" />
    </clipPath>
  </defs>
</svg>
