<svg width="48" height="48" viewBox="0 0 48 48" fill="none" xmlns="http://www.w3.org/2000/svg">
  <g clip-path="url(#clip0_2_26)">
    <path
      d="M36.75 0H11.25C5.0368 0 0 5.0368 0 11.25V36.75C0 42.9632 5.0368 48 11.25 48H36.75C42.9632 48 48 42.9632 48 36.75V11.25C48 5.0368 42.9632 0 36.75 0Z"
      fill="#CD6799" />
    <path
      d="M37.5201 26.0932C36.2125 26.0999 35.0762 26.4149 34.1246 26.8803C33.7755 26.189 33.4264 25.5729 33.3647 25.121C33.2963 24.5939 33.2141 24.2722 33.2963 23.6424C33.3784 23.0125 33.7481 22.1159 33.7412 22.0475C33.7345 21.9789 33.6591 21.6573 32.9061 21.6504C32.1531 21.6436 31.5028 21.7942 31.4275 21.9927C31.3521 22.1911 31.2085 22.643 31.1126 23.1085C30.9825 23.7931 29.6065 26.237 28.8193 27.517C28.566 27.0174 28.347 26.5792 28.299 26.23C28.2306 25.703 28.1485 25.3812 28.2306 24.7514C28.3127 24.1216 28.6825 23.2248 28.6755 23.1564C28.6688 23.0879 28.5934 22.7662 27.8404 22.7594C27.0874 22.7525 26.437 22.903 26.3618 23.1016C26.2864 23.3002 26.2043 23.7657 26.0468 24.2174C25.8895 24.6693 24.0617 28.7493 23.5825 29.8034C23.3361 30.3442 23.1238 30.7754 22.9733 31.0698C22.9733 31.0698 22.9663 31.0904 22.9459 31.1245C22.8158 31.3779 22.7404 31.5147 22.7404 31.5147C22.7404 31.5147 22.7404 31.5147 22.7404 31.5217C22.6378 31.7065 22.5281 31.8775 22.4734 31.8775C22.4323 31.8775 22.3571 31.3848 22.4871 30.7139C22.761 29.2968 23.4113 27.0925 23.4045 27.0174C23.4045 26.9763 23.5277 26.5929 22.98 26.3943C22.446 26.1957 22.2544 26.5244 22.2064 26.5244C22.1586 26.5244 22.1243 26.6409 22.1243 26.6409C22.1243 26.6409 22.72 24.1627 20.988 24.1627C19.9063 24.1627 18.414 25.3469 17.6747 26.4149C17.2092 26.6682 16.2166 27.209 15.1555 27.7908C14.7517 28.0167 14.3341 28.2427 13.9439 28.4549C13.9165 28.4275 13.8891 28.3932 13.8617 28.3659C11.767 26.1273 7.89242 24.5461 8.0567 21.5409C8.11832 20.4455 8.49482 17.5704 15.4978 14.0792C21.2618 11.2383 25.8484 12.0255 26.6425 13.7711C27.7787 16.2629 24.1849 20.8904 18.2292 21.5613C15.9565 21.8146 14.7654 20.9384 14.4642 20.6099C14.1493 20.2675 14.1013 20.2471 13.985 20.3155C13.7933 20.4181 13.9165 20.7262 13.985 20.9041C14.1629 21.3697 14.8954 22.1911 16.1345 22.595C17.2298 22.951 19.8926 23.1496 23.1169 21.9037C26.7246 20.5072 29.545 16.6257 28.7166 13.3741C27.8884 10.0745 22.4119 8.98606 17.2298 10.8275C14.1493 11.9228 10.8086 13.6479 8.40583 15.8932C5.55124 18.563 5.09942 20.8837 5.28425 21.8557C5.94827 25.3059 10.7059 27.5512 12.609 29.2147C12.5132 29.2694 12.4242 29.3174 12.3489 29.3585C11.3973 29.8308 7.76919 31.727 6.86557 33.7329C5.83875 36.0055 7.02988 37.6347 7.81712 37.8537C10.261 38.5315 12.7733 37.313 14.1219 35.3004C15.4705 33.2877 15.3062 30.6729 14.6832 29.4749C14.6764 29.4612 14.6695 29.4475 14.6558 29.4339C14.9023 29.29 15.1555 29.1395 15.402 28.9957C15.888 28.7082 16.3672 28.4412 16.7779 28.222C16.5452 28.8588 16.3741 29.6185 16.2919 30.7139C16.1892 32.0009 16.7163 33.6712 17.4077 34.3284C17.7158 34.6158 18.0786 34.6227 18.3114 34.6227C19.1192 34.6227 19.482 33.9519 19.8859 33.1578C20.3786 32.1856 20.8238 31.0561 20.8238 31.0561C20.8238 31.0561 20.2691 34.1094 21.7751 34.1094C22.3228 34.1094 22.8773 33.3974 23.1238 33.0346C23.1238 33.0414 23.1238 33.0414 23.1238 33.0414C23.1238 33.0414 23.1375 33.0209 23.1649 32.9729C23.2196 32.8839 23.2538 32.8291 23.2538 32.8291C23.2538 32.8291 23.2538 32.8224 23.2538 32.8154C23.473 32.4322 23.9657 31.5627 24.6983 30.1182C25.6429 28.2564 26.5534 25.9289 26.5534 25.9289C26.5534 25.9289 26.6355 26.497 26.9162 27.4417C27.0805 27.9963 27.4228 28.6055 27.6966 29.1942C27.4776 29.5023 27.3407 29.6733 27.3407 29.6733C27.3407 29.6733 27.3407 29.6733 27.3475 29.6802C27.1695 29.9129 26.9779 30.1662 26.7656 30.4126C26.0194 31.3027 25.1295 32.3227 25.0063 32.617C24.8625 32.9662 24.8968 33.2193 25.1706 33.4248C25.3691 33.5754 25.725 33.5958 26.0878 33.5754C26.7587 33.5274 27.2312 33.3631 27.4639 33.2604C27.8267 33.1304 28.2512 32.9319 28.6481 32.6375C29.3807 32.0967 29.8256 31.3231 29.7846 30.3031C29.764 29.7417 29.5791 29.1805 29.3533 28.6533C29.4218 28.5575 29.4833 28.4617 29.5517 28.3659C30.7088 26.675 31.6054 24.8199 31.6054 24.8199C31.6054 24.8199 31.6875 25.388 31.9682 26.3328C32.1051 26.8119 32.3858 27.3322 32.6323 27.8388C31.5439 28.7219 30.873 29.7487 30.6334 30.4195C30.2021 31.6655 30.5376 32.2267 31.1741 32.3568C31.4618 32.4185 31.8724 32.2816 32.1737 32.1515C32.557 32.0283 33.0088 31.816 33.4401 31.501C34.1725 30.9603 34.8776 30.2073 34.8366 29.1873C34.816 28.7219 34.6928 28.2631 34.5216 27.8182C35.4458 27.4349 36.637 27.2227 38.1566 27.4006C41.4152 27.784 42.0587 29.8171 41.9353 30.6729C41.8121 31.5284 41.1276 31.994 40.9016 32.1378C40.6759 32.2816 40.6005 32.3294 40.6211 32.4322C40.6485 32.5827 40.758 32.5758 40.9496 32.5484C41.2166 32.5006 42.661 31.8571 42.7226 30.2827C42.8254 28.27 40.9086 26.0725 37.5201 26.0932ZM12.3831 34.568C11.3015 35.7453 9.79549 36.1904 9.14516 35.8139C8.44691 35.4099 8.72074 33.6712 10.0488 32.4252C10.8565 31.6655 11.8971 30.9603 12.5885 30.529C12.7459 30.4332 12.9787 30.2964 13.2593 30.1252C13.3072 30.0978 13.3346 30.0841 13.3346 30.0841C13.3894 30.0498 13.4442 30.0157 13.4989 29.9814C13.985 31.7613 13.5195 33.329 12.3831 34.568ZM20.2555 29.2147C19.879 30.1321 19.0918 32.48 18.6126 32.35C18.2018 32.2404 17.9485 30.4606 18.5304 28.7013C18.8248 27.8182 19.4477 26.764 19.8105 26.3532C20.3993 25.696 21.0495 25.477 21.207 25.744C21.4056 26.0932 20.4883 28.6396 20.2555 29.2147ZM26.752 32.3227C26.5945 32.4048 26.4439 32.4595 26.3755 32.4185C26.3275 32.3911 26.4439 32.2816 26.4439 32.2816C26.4439 32.2816 27.2586 31.4052 27.5803 31.0083C27.765 30.7754 27.9842 30.5017 28.2169 30.1936C28.2169 30.221 28.2169 30.2553 28.2169 30.2827C28.2169 31.33 27.2038 32.035 26.752 32.3227ZM31.7629 31.1793C31.6465 31.0972 31.6671 30.8234 32.0573 29.9677C32.2078 29.6322 32.5639 29.071 33.1731 28.5301C33.2415 28.7493 33.2895 28.9614 33.2826 29.1599C33.2758 30.4812 32.331 30.974 31.7629 31.1793Z"
      fill="white" />
  </g>
  <defs>
    <clipPath id="clip0_2_26">
      <rect width="48" height="48" fill="white" />
    </clipPath>
  </defs>
</svg>
