<svg width="48" height="48" viewBox="0 0 48 48" fill="none" xmlns="http://www.w3.org/2000/svg">
  <g clip-path="url(#clip0_2_30)">
    <path
      d="M36.75 0H11.25C5.0368 0 0 5.0368 0 11.25V36.75C0 42.9632 5.0368 48 11.25 48H36.75C42.9632 48 48 42.9632 48 36.75V11.25C48 5.0368 42.9632 0 36.75 0Z"
      fill="url(#paint0_linear_2_30)" />
    <path
      d="M2.15382 24.2023L11.5858 28.0243V30.6998L0.420288 25.5264V23.9567L2.15382 24.2023ZM11.5858 21.063L2.16747 24.9394L0.420288 25.1306V23.5472L11.5858 18.3876V21.063Z"
      fill="white" />
    <path
      d="M45.2571 24.7483L35.5521 20.9673V18.3602L47.2089 23.5198V25.1169L45.2571 24.7483ZM35.5521 28.0788L45.2844 24.216L47.2089 23.9293V25.5127L35.5521 30.686V28.0788Z"
      fill="white" />
    <path fill-rule="evenodd" clip-rule="evenodd"
      d="M33.0144 11.456C32.9604 12.3122 32.5748 13.2063 32.6822 14.0386C33.3559 15.2298 34.8386 15.4199 36.0619 15.5015C36.9094 15.653 36.8987 15.0918 36.8419 14.4614C36.8453 13.4537 36.8486 12.446 36.8522 11.4383C35.5729 11.4429 34.2932 11.4256 33.0144 11.456ZM22.9268 13.8506C20.844 14.204 18.7328 15.1993 17.0001 16.3974C15.6055 17.4828 18.1973 18.5347 19.1376 18.7106C21.0294 18.7336 22.7074 17.4576 23.9501 16.133C24.3559 15.576 24.8627 14.7236 24.3529 14.0782C23.9636 13.7406 23.3976 13.8225 22.9268 13.8506ZM27.3587 16.8795C25.6463 17.2056 24.0169 17.9115 22.5752 18.8942C21.5183 19.2261 20.6471 20.3865 21.9568 20.9679C23.3321 22.0639 24.9261 21.7954 26.1926 21.0555C27.3525 20.3661 28.6054 19.5154 29.142 18.2175C29.6488 16.7957 28.3412 16.7429 27.3587 16.8795ZM32.2166 22.3888C31.8977 23.7208 30.5563 24.3264 29.8427 25.3819C29.2592 26.1517 29.5294 27.0587 30.1937 27.6647C30.5171 28.3354 31.0841 28.7102 31.6922 28.1276C33.2582 27.063 33.6913 24.9892 33.6263 23.1924C33.7419 22.4503 32.8905 23.1212 32.2166 22.3888ZM26.2573 24.8906C24.1778 25.2465 22.0978 26.2597 20.3644 27.456C19.0187 28.5399 21.5531 29.5521 22.5011 29.7126C24.4281 29.7154 26.1469 28.4736 27.3653 27.0632C27.789 26.5031 28.3026 25.4154 27.4635 24.9701C27.0883 24.8111 26.6528 24.8578 26.2573 24.8906Z"
      fill="#B956A6" />
    <path fill-rule="evenodd" clip-rule="evenodd"
      d="M17.0001 16.3974C15.4008 17.0373 13.8578 17.8144 12.3344 18.628C12.0512 19.6809 12.2783 20.9846 12.2048 22.139C12.1993 26.8858 12.202 31.6327 12.2011 36.3794C13.3774 36.3794 14.5538 36.3794 15.7301 36.3794C16.4425 35.7086 17.3351 35.2175 18.109 34.6083C21.0891 32.471 24.0683 30.3254 27.0444 28.1941C27.2634 28.2926 27.1232 26.9058 26.6428 27.869C25.5045 28.9402 23.9936 29.8213 22.3944 29.7352C21.4869 29.4367 20.0241 28.9303 20.0149 27.8182C20.6537 27.0661 18.8363 28.2119 18.3391 28.376C16.7223 29.1523 15.1439 30.0191 13.5239 30.7809C13.9133 30.3628 14.6417 29.9729 15.1579 29.5582C18.8466 26.9103 22.5343 24.2521 26.2318 21.6063C26.943 21.107 27.63 20.5623 28.3631 20.0956C28.4301 20.3542 28.5557 18.8594 28.0104 19.7797C26.8989 20.8814 25.3997 21.7016 23.8185 21.7128C22.9292 21.4428 21.0351 20.7973 21.4568 19.649C21.6624 19.2461 19.5465 20.5079 20.4814 19.7964C21.4764 19.0693 22.4794 18.355 23.4821 17.6355C23.9886 17.5973 23.8808 15.7163 23.1926 16.9297C22.0367 17.9453 20.5179 18.8746 18.9259 18.6544C18.0315 18.3969 16.9584 17.8982 16.6334 16.963C16.5257 16.7384 17.2355 16.3885 17.0001 16.3974ZM23.6261 17.5586C23.5374 17.8123 23.7868 17.4659 23.6261 17.5586V17.5586Z"
      fill="#FCCC44" />
    <path fill-rule="evenodd" clip-rule="evenodd"
      d="M33.7311 15.1405C33.2317 17.525 32.6859 20.0203 32.2166 22.3888C33.5651 24.0883 33.6958 21.3152 33.9317 20.531C34.3129 18.8921 34.7644 17.6546 34.8122 15.9576C34.9134 15.3786 34.2328 15.0278 33.7311 15.1405ZM35.2781 17.0103C35.2359 17.2548 35.3396 17.0562 35.2781 17.0103V17.0103ZM33.705 22.3567C33.7699 22.2169 33.7699 22.4964 33.705 22.3567V22.3567Z"
      fill="#62777F" />
    <path fill-rule="evenodd" clip-rule="evenodd"
      d="M34.6155 15.4104C35.0362 17.7735 33.6425 20.6441 33.1867 22.8719C34.2217 22.1103 35.0214 18.6547 35.2258 17.3021C35.2785 17.1474 35.3434 16.7581 35.3574 16.7441C35.4225 16.4157 36.0287 15.8594 36.0619 15.5015C36.4147 15.2524 34.3275 15.2123 34.6155 15.4104ZM33.7573 22.3567C33.6922 22.2168 33.6922 22.4964 33.7573 22.3567V22.3567Z"
      fill="#4E5E67" />
    <path fill-rule="evenodd" clip-rule="evenodd"
      d="M17.0351 16.4368C16.4516 17.021 16.6706 16.8783 17.1049 16.3925L17.0351 16.4368ZM23.3464 16.7261C22.6704 17.7418 20.2329 18.5912 19.926 18.657C21.3922 18.3824 22.7589 17.4703 23.7206 16.4017C23.5678 16.4697 23.4771 16.6298 23.3464 16.7261ZM16.6342 17.0559C16.9985 17.9319 18.3232 18.514 18.9669 18.6498C18.0881 18.3667 17.0536 17.8645 16.6342 17.0559ZM23.5736 17.5625C23.3897 17.7797 22.7346 18.1046 22.3892 18.423C21.6484 18.9696 20.8821 19.4773 20.1497 20.0374C20.616 20.0173 21.9825 18.9965 21.282 20.0323C21.8756 21.054 23.1681 21.7644 24.3465 21.6996C25.9027 21.4552 27.3379 20.5948 28.3695 19.3982C27.1172 20.6374 25.4616 21.8036 23.6295 21.6429C22.7428 21.4382 20.3199 20.1866 21.9407 19.3093C22.5122 18.8392 23.4975 18.593 23.6091 17.7669C23.5856 17.6638 23.7778 17.5632 23.5736 17.5625V17.5625ZM19.1376 18.7106C19.7272 18.6336 19.7272 18.7877 19.1376 18.7106V18.7106ZM28.3256 20.1216C25.9858 21.7517 23.6799 23.4456 21.3604 25.1049C18.7317 26.9863 16.1142 28.8746 13.4861 30.7545C14.4742 30.4213 15.4642 29.7707 16.4459 29.3212C17.7975 28.6061 19.2231 28.0412 20.4879 27.1725C22.9888 25.7002 25.6337 24.2976 27.5572 22.0451C27.9771 21.5527 28.398 20.7602 28.4167 20.2271C28.3562 20.2442 28.4021 20.0139 28.3256 20.1216ZM20.3644 27.456C19.9434 27.9317 19.7724 28.2716 20.2093 27.6667C20.2016 27.7369 20.5639 27.2912 20.3644 27.456ZM26.7686 27.6836C25.6597 28.8529 24.0197 29.6962 22.4809 29.7531C24.2599 29.766 25.8649 28.71 27.0701 27.4642C26.991 27.3686 26.8307 27.687 26.7686 27.6836ZM27.1074 28.0511C23.382 30.7631 19.5279 33.5762 15.7899 36.2784C16.3789 36.4631 17.661 36.5497 18.246 35.7958C19.4912 34.9367 20.8909 34.305 22.14 33.4342C23.9488 32.2605 25.8855 30.9776 26.9128 29.0049C26.9617 28.7404 27.3253 28.2645 27.1074 28.0511ZM20.0175 28.2232C20.1904 28.953 22.3515 29.7906 22.1171 29.6302C21.3202 29.3509 20.5297 28.9155 20.0175 28.2232Z"
      fill="#DC9624" />
  </g>
  <defs>
    <linearGradient id="paint0_linear_2_30" x1="0" y1="48" x2="48" y2="0"
      gradientUnits="userSpaceOnUse">
      <stop stop-color="#DB7093" />
      <stop offset="1" stop-color="#F3B661" />
    </linearGradient>
    <clipPath id="clip0_2_30">
      <rect width="48" height="48" fill="white" />
    </clipPath>
  </defs>
</svg>
