<svg width="48" height="48" viewBox="0 0 48 48" fill="none" xmlns="http://www.w3.org/2000/svg">
  <g clip-path="url(#clip0_2_49)">
    <path
      d="M36.75 0H11.25C5.0368 0 0 5.0368 0 11.25V36.75C0 42.9632 5.0368 48 11.25 48H36.75C42.9632 48 48 42.9632 48 36.75V11.25C48 5.0368 42.9632 0 36.75 0Z"
      fill="#242938" />
    <path
      d="M42.579 10.8004L24.9855 42.2605C24.6221 42.9102 23.6889 42.9139 23.3203 42.2676L5.37793 10.8034C4.97625 10.099 5.57857 9.24577 6.3768 9.38846L23.9891 12.5366C24.1014 12.5566 24.2166 12.5564 24.3289 12.536L41.5729 9.39296C42.3684 9.24797 42.9735 10.0946 42.579 10.8004Z"
      fill="url(#paint0_linear_2_49)" />
    <path
      d="M32.3788 5.25923L19.3592 7.81039C19.1451 7.85232 18.9866 8.03367 18.9739 8.25132L18.1729 21.7778C18.154 22.0963 18.4466 22.3436 18.7575 22.2718L22.3824 21.4354C22.7216 21.3572 23.028 21.6559 22.9584 21.9969L21.8814 27.2706C21.8089 27.6255 22.1422 27.9289 22.4887 27.8237L24.7277 27.1434C25.0747 27.0381 25.4083 27.3424 25.3348 27.6977L23.6233 35.9813C23.5162 36.4995 24.2055 36.7821 24.4929 36.3377L24.6849 36.0411L35.2941 14.8686C35.4718 14.5141 35.1654 14.1099 34.776 14.185L31.0449 14.9051C30.6943 14.9727 30.396 14.6462 30.4948 14.3031L32.9303 5.86092C33.0293 5.51728 32.7298 5.19047 32.3788 5.25923Z"
      fill="url(#paint1_linear_2_49)" />
  </g>
  <defs>
    <linearGradient id="paint0_linear_2_49" x1="4.93986" y1="8.26412" x2="26.8363" y2="38.0012"
      gradientUnits="userSpaceOnUse">
      <stop stop-color="#41D1FF" />
      <stop offset="1" stop-color="#BD34FE" />
    </linearGradient>
    <linearGradient id="paint1_linear_2_49" x1="22.9783" y1="5.95187" x2="26.9392" y2="33.1238"
      gradientUnits="userSpaceOnUse">
      <stop stop-color="#FFEA83" />
      <stop offset="0.0833333" stop-color="#FFDD35" />
      <stop offset="1" stop-color="#FFA800" />
    </linearGradient>
    <clipPath id="clip0_2_49">
      <rect width="48" height="48" fill="white" />
    </clipPath>
  </defs>
</svg>
