<svg width="48" height="48" viewBox="0 0 48 48" fill="none" xmlns="http://www.w3.org/2000/svg">
  <g clip-path="url(#clip0_388_62)">
    <path
      d="M36.75 0H11.25C5.0368 0 0 5.0368 0 11.25V36.75C0 42.9632 5.0368 48 11.25 48H36.75C42.9632 48 48 42.9632 48 36.75V11.25C48 5.0368 42.9632 0 36.75 0Z"
      fill="#242938" />
    <path
      d="M34.1794 42.4802L13.357 42.5C8.77613 42.5042 5.02499 38.7603 5.01978 34.1794L5 13.3571C4.99584 8.77613 8.7397 5.02499 13.3206 5.01978L34.1429 5C38.7239 4.99584 42.475 8.7397 42.4802 13.3206L42.5 34.143C42.5052 38.7249 38.7603 42.4761 34.1794 42.4802Z"
      fill="url(#paint0_radial_388_62)" />
    <path
      d="M34.1794 42.4802L13.357 42.5C8.77613 42.5042 5.02499 38.7603 5.01978 34.1794L5 13.3571C4.99584 8.77613 8.7397 5.02499 13.3206 5.01978L34.1429 5C38.7239 4.99584 42.475 8.7397 42.4802 13.3206L42.5 34.143C42.5052 38.7249 38.7603 42.4761 34.1794 42.4802Z"
      fill="url(#paint1_radial_388_62)" />
    <path
      d="M23.7507 31.0383C19.733 31.0383 16.4629 27.7692 16.4629 23.7505C16.4629 19.7318 19.733 16.4627 23.7507 16.4627C27.7684 16.4627 31.0385 19.7318 31.0385 23.7505C31.0385 27.7692 27.7684 31.0383 23.7507 31.0383ZM23.7507 18.5449C20.8803 18.5449 18.5451 20.8802 18.5451 23.7505C18.5451 26.6209 20.8803 28.9561 23.7507 28.9561C26.6211 28.9561 28.9563 26.6209 28.9563 23.7505C28.9563 20.8802 26.6211 18.5449 23.7507 18.5449Z"
      fill="white" />
    <path
      d="M29.997 37.2851H17.5036C13.486 37.2851 10.2158 34.016 10.2158 29.9973V17.5039C10.2158 13.4851 13.486 10.216 17.5036 10.216H29.997C34.0147 10.216 37.2849 13.4851 37.2849 17.5039V29.9973C37.2849 34.016 34.0147 37.2851 29.997 37.2851ZM17.5036 12.2983C14.6333 12.2983 12.2981 14.6335 12.2981 17.5039V29.9973C12.2981 32.8676 14.6333 35.2028 17.5036 35.2028H29.997C32.8674 35.2028 35.2026 32.8676 35.2026 29.9973V17.5039C35.2026 14.6335 32.8674 12.2983 29.997 12.2983H17.5036Z"
      fill="white" />
  </g>
  <defs>
    <radialGradient id="paint0_radial_388_62" cx="0" cy="0" r="1" gradientUnits="userSpaceOnUse"
      gradientTransform="translate(18.9406 42.5271) scale(46.7451 46.7451)">
      <stop stop-color="#FFDD55" />
      <stop offset="0.328" stop-color="#FF543F" />
      <stop offset="0.348" stop-color="#FC5245" />
      <stop offset="0.504" stop-color="#E64771" />
      <stop offset="0.643" stop-color="#D53E91" />
      <stop offset="0.761" stop-color="#CC39A4" />
      <stop offset="0.841" stop-color="#C837AB" />
    </radialGradient>
    <radialGradient id="paint1_radial_388_62" cx="0" cy="0" r="1" gradientUnits="userSpaceOnUse"
      gradientTransform="translate(11.0343 4.53182) scale(31.0388 20.6812)">
      <stop stop-color="#4168C9" />
      <stop offset="0.999" stop-color="#4168C9" stop-opacity="0" />
    </radialGradient>
    <clipPath id="clip0_388_62">
      <rect width="48" height="48" fill="white" />
    </clipPath>
  </defs>
</svg>
