<svg width="48" height="48" viewBox="0 0 48 48" fill="none" xmlns="http://www.w3.org/2000/svg">
  <g clip-path="url(#clip0_388_53)">
    <path
      d="M36.75 0H11.25C5.0368 0 0 5.0368 0 11.25V36.75C0 42.9632 5.0368 48 11.25 48H36.75C42.9632 48 48 42.9632 48 36.75V11.25C48 5.0368 42.9632 0 36.75 0Z"
      fill="#242938" />
    <g clip-path="url(#clip1_388_53)">
      <rect x="5" y="5" width="37.5" height="37.5" rx="5" fill="white" />
      <path
        d="M36.9484 36.9562H31.3953V28.2547C31.3953 26.1797 31.3531 23.5094 28.5016 23.5094C25.6063 23.5094 25.1641 25.7672 25.1641 28.1016V36.9562H19.6109V19.0625H24.9453V21.5016H25.0172C25.7625 20.0953 27.575 18.6109 30.2828 18.6109C35.9094 18.6109 36.95 22.3141 36.95 27.1344L36.9484 36.9562ZM13.3391 16.6141C11.5516 16.6141 10.1156 15.1672 10.1156 13.3875C10.1156 11.6094 11.5531 10.1641 13.3391 10.1641C15.1203 10.1641 16.5641 11.6094 16.5641 13.3875C16.5641 15.1672 15.1187 16.6141 13.3391 16.6141ZM16.1234 36.9562H10.5547V19.0625H16.1234V36.9562ZM39.7266 5H7.76719C6.2375 5 5 6.20937 5 7.70156V39.7984C5 41.2922 6.2375 42.5 7.76719 42.5H39.7219C41.25 42.5 42.5 41.2922 42.5 39.7984V7.70156C42.5 6.20937 41.25 5 39.7219 5H39.7266Z"
        fill="#0A66C2" />
    </g>
  </g>
  <defs>
    <clipPath id="clip0_388_53">
      <rect width="48" height="48" fill="white" />
    </clipPath>
    <clipPath id="clip1_388_53">
      <rect x="5" y="5" width="37.5" height="37.5" rx="5" fill="white" />
    </clipPath>
  </defs>
</svg>
