<svg width="48" height="48" viewBox="0 0 48 48" fill="none" xmlns="http://www.w3.org/2000/svg">
  <g clip-path="url(#clip0_388_50)">
    <path
      d="M36.75 0H11.25C5.0368 0 0 5.0368 0 11.25V36.75C0 42.9632 5.0368 48 11.25 48H36.75C42.9632 48 48 42.9632 48 36.75V11.25C48 5.0368 42.9632 0 36.75 0Z"
      fill="#242938" />
    <path
      d="M23.75 5C13.4375 5 5 13.4375 5 23.75C5 34.0625 13.4375 42.5 23.75 42.5C34.0625 42.5 42.5 34.0625 42.5 23.75C42.5 13.4375 34.1562 5 23.75 5ZM32.3766 32.0938C32.0016 32.6547 31.3453 32.8438 30.7812 32.4688C26.375 29.75 20.8438 29.1859 14.2797 30.6859C13.6266 30.8766 13.0625 30.4062 12.875 29.8438C12.6875 29.1859 13.1562 28.625 13.7188 28.4375C20.8438 26.8422 27.0312 27.5 31.9062 30.5C32.5625 30.7812 32.6547 31.5297 32.3766 32.0938ZM34.6266 26.9375C34.1562 27.5938 33.3125 27.875 32.6547 27.4062C27.5937 24.3125 19.9062 23.375 14 25.25C13.2516 25.4375 12.4062 25.0625 12.2188 24.3125C12.0312 23.5625 12.4062 22.7172 13.1562 22.5297C20 20.4688 28.4375 21.5016 34.25 25.0625C34.8141 25.3453 35.0938 26.2812 34.6266 26.9375ZM34.8141 21.6875C28.8125 18.125 18.7812 17.75 13.0625 19.5328C12.125 19.8125 11.1875 19.25 10.9062 18.4062C10.625 17.4672 11.1875 16.5312 12.0312 16.2484C18.6875 14.2797 29.6563 14.6547 36.5953 18.7812C37.4375 19.25 37.7188 20.375 37.25 21.2188C36.7828 21.8766 35.6562 22.1547 34.8141 21.6875Z"
      fill="#1ED760" />
  </g>
  <defs>
    <clipPath id="clip0_388_50">
      <rect width="48" height="48" fill="white" />
    </clipPath>
  </defs>
</svg>
