<svg width="48" height="48" viewBox="0 0 48 48" fill="none" xmlns="http://www.w3.org/2000/svg">
  <path
    d="M36.75 0H11.25C5.0368 0 0 5.0368 0 11.25V36.75C0 42.9632 5.0368 48 11.25 48H36.75C42.9632 48 48 42.9632 48 36.75V11.25C48 5.0368 42.9632 0 36.75 0Z"
    fill="#242938" />
  <path
    d="M8.80273 38.8305L10.9074 31.1469C9.60898 28.8984 8.92617 26.3469 8.92695 23.7336C8.93086 15.5578 15.584 8.90625 23.7605 8.90625C27.7285 8.90781 31.452 10.4523 34.2527 13.2547C37.0527 16.0578 38.5949 19.7828 38.5934 23.7453C38.5902 31.9211 31.9355 38.5734 23.7605 38.5734H23.7543C21.2723 38.5727 18.8324 37.95 16.666 36.768L8.80273 38.8305Z"
    fill="white" />
  <path
    d="M8.80337 39.2211C8.70024 39.2211 8.60024 39.1805 8.52603 39.1055C8.42837 39.0062 8.39009 38.8617 8.42681 38.7281L10.4885 31.2C9.2104 28.9297 8.53618 26.3516 8.53774 23.7344C8.54087 15.3422 15.3698 8.51562 23.7612 8.51562C27.8315 8.51719 31.6557 10.1023 34.5299 12.9789C37.4041 15.8563 38.9862 19.6797 38.9846 23.7453C38.9815 32.1367 32.1518 38.9641 23.7612 38.9641C21.2698 38.9633 18.8049 38.3484 16.6174 37.1852L8.90259 39.2078C8.86978 39.2172 8.83696 39.2211 8.80337 39.2211Z"
    fill="white" />
  <path
    d="M23.7609 8.90625C27.7288 8.90781 31.4523 10.4523 34.2531 13.2547C37.0531 16.0578 38.5952 19.7828 38.5937 23.7453C38.5906 31.9211 31.9359 38.5734 23.7609 38.5734H23.7546C21.2726 38.5727 18.8327 37.95 16.6663 36.768L8.80306 38.8305L10.9077 31.1469C9.60931 28.8984 8.92649 26.3469 8.92727 23.7336C8.93118 15.5578 15.5843 8.90625 23.7609 8.90625ZM23.7609 8.125C15.1546 8.125 8.14993 15.1266 8.14602 23.7336C8.14524 26.3641 8.80931 28.9563 10.0687 31.2508L8.04915 38.625C7.97571 38.8945 8.05071 39.182 8.24759 39.3805C8.39602 39.5305 8.59681 39.6125 8.80306 39.6125C8.86946 39.6125 8.93587 39.6039 9.00149 39.5867L16.5695 37.6023C18.7788 38.7492 21.2554 39.3547 23.7546 39.3555C32.3671 39.3555 39.3718 32.3531 39.3757 23.7461C39.3773 19.575 37.7546 15.6531 34.807 12.7031C31.8577 9.75234 27.9351 8.12656 23.7609 8.125Z"
    fill="#CFD8DC" />
  <path
    d="M32.4816 15.025C30.1535 12.6953 27.059 11.4117 23.7652 11.4109C16.9652 11.4109 11.4348 16.9391 11.4316 23.7344C11.4309 26.0633 12.0824 28.3305 13.3168 30.2938L13.6105 30.7602L12.3645 35.3078L17.0309 34.0844L17.4816 34.3516C19.3738 35.475 21.5441 36.0688 23.7566 36.0695H23.7613C30.5566 36.0695 36.0871 30.5406 36.0895 23.7445C36.0902 20.4516 34.8098 17.3547 32.4816 15.025Z"
    fill="#40C351" />
  <path fill-rule="evenodd" clip-rule="evenodd"
    d="M20.0531 17.5352C19.7758 16.918 19.4836 16.9055 19.2188 16.8945C19.0023 16.8852 18.7555 16.8859 18.5086 16.8859C18.2617 16.8859 17.8602 16.9789 17.5203 17.35C17.1805 17.7211 16.2227 18.6172 16.2227 20.4406C16.2227 22.2641 17.5508 24.0266 17.7359 24.2734C17.9211 24.5203 20.3 28.382 24.0672 29.868C27.1977 31.1023 27.8352 30.857 28.5148 30.7953C29.1945 30.7336 30.7078 29.8992 31.0164 29.0336C31.325 28.168 31.325 27.4266 31.2328 27.2719C31.1398 27.1172 30.893 27.025 30.5227 26.8391C30.1523 26.6531 28.3297 25.757 27.9898 25.6336C27.65 25.5102 27.4031 25.4484 27.1555 25.8195C26.9086 26.1898 26.1984 27.025 25.982 27.2719C25.7656 27.5195 25.5492 27.5508 25.1789 27.3648C24.8086 27.1789 23.6148 26.7883 22.1984 25.5258C21.0969 24.5438 20.3531 23.3305 20.1367 22.9594C19.9203 22.5891 20.1133 22.3883 20.2992 22.2031C20.4656 22.0367 20.6695 21.7703 20.8555 21.5539C21.0406 21.3375 21.1023 21.1828 21.2258 20.9359C21.3492 20.6883 21.2875 20.4719 21.1945 20.2867C21.1031 20.1008 20.3828 18.268 20.0531 17.5352Z"
    fill="white" />
</svg>
